<?xml version="1.0" standalone="no"?>
<!DOCTYPE svg PUBLIC "-//W3C//DTD SVG 20010904//EN"
 "http://www.w3.org/TR/2001/REC-SVG-20010904/DTD/svg10.dtd">
<svg version="1.0" xmlns="http://www.w3.org/2000/svg"
 width="1200.000000pt" height="1200.000000pt" viewBox="0 0 1200.000000 1200.000000"
 preserveAspectRatio="xMidYMid meet">
<metadata>
Created by potrace 1.11, written by Peter Selinger 2001-2013
</metadata>
<g transform="translate(0.000000,1200.000000) scale(0.100000,-0.100000)"
fill="#000000" stroke="none">
<path d="M5957 11864 c-1 -1 -78 -5 -172 -8 -200 -8 -282 -13 -350 -21 -27 -3
-72 -8 -100 -10 -27 -3 -66 -7 -85 -10 -19 -3 -53 -8 -75 -10 -55 -7 -204 -33
-295 -50 -109 -22 -107 -21 -210 -45 -52 -12 -102 -23 -110 -25 -23 -5 -187
-51 -260 -73 -112 -33 -373 -124 -428 -148 -29 -13 -56 -24 -60 -24 -15 0
-298 -127 -423 -190 l-127 -63 -31 -101 c-29 -98 -64 -239 -76 -308 -3 -18
-10 -58 -15 -88 -31 -185 -42 -444 -27 -665 4 -55 9 -109 11 -121 2 -12 7 -45
11 -75 15 -119 53 -288 99 -441 186 -613 594 -1170 1121 -1529 164 -112 395
-236 565 -303 l65 -26 503 503 c277 276 505 504 508 507 3 2 233 -224 512
-502 l507 -507 75 30 c75 30 325 152 390 191 640 385 1100 983 1304 1696 40
137 72 290 82 382 3 36 8 68 10 71 15 26 23 426 11 574 -5 70 -30 251 -42 310
-35 173 -90 371 -109 392 -29 31 -429 215 -642 296 -226 86 -550 187 -709 222
-11 2 -67 15 -125 29 -58 13 -121 27 -140 30 -19 3 -82 14 -140 24 -58 11
-112 20 -120 20 -8 1 -46 5 -85 11 -38 5 -95 12 -125 16 -30 3 -73 8 -95 10
-83 10 -165 15 -340 21 -99 3 -197 7 -218 8 -20 1 -38 1 -40 0z"/>
<path d="M1618 8895 c-2 -2 -43 -6 -93 -9 -91 -6 -104 -8 -230 -27 -150 -23
-448 -101 -472 -123 -11 -10 -108 -200 -151 -296 -217 -481 -355 -927 -446
-1435 -14 -77 -27 -165 -31 -195 -3 -30 -8 -66 -10 -80 -8 -50 -22 -184 -31
-295 -14 -190 -19 -587 -9 -735 2 -36 7 -104 10 -151 3 -48 7 -95 9 -105 2
-11 7 -53 10 -94 16 -173 70 -496 111 -660 8 -30 16 -66 19 -80 9 -43 46 -182
72 -267 14 -45 27 -90 29 -100 7 -38 115 -334 167 -463 63 -154 106 -248 185
-407 l56 -111 106 -31 c124 -36 297 -77 361 -85 25 -3 72 -11 105 -16 73 -12
250 -24 365 -24 103 0 339 12 348 18 4 2 33 7 65 10 190 22 551 119 687 185
24 11 48 21 52 21 13 0 235 111 319 160 133 78 302 197 414 293 64 55 259 248
310 307 66 76 194 250 251 340 32 52 65 104 72 115 25 40 142 282 171 355 l30
75 -507 508 -507 507 507 508 507 507 -30 75 c-28 71 -138 297 -178 367 -49
87 -204 308 -274 393 -97 116 -263 282 -377 376 -77 64 -234 181 -285 211
-448 271 -797 391 -1297 448 -54 6 -405 15 -410 10z"/>
<path d="M10137 8894 c-1 -1 -49 -5 -107 -8 -58 -4 -116 -8 -130 -10 -115 -16
-252 -41 -340 -62 -106 -26 -396 -119 -415 -134 -5 -4 -21 -11 -34 -15 -87
-27 -336 -162 -494 -268 -364 -246 -669 -575 -892 -966 -54 -93 -182 -368
-187 -400 -2 -16 115 -139 502 -526 l505 -505 -506 -508 c-338 -338 -505 -512
-502 -522 3 -8 14 -34 24 -57 11 -23 19 -44 19 -47 0 -12 101 -219 140 -288
41 -70 159 -258 170 -268 3 -3 25 -32 49 -65 71 -97 147 -183 260 -295 155
-153 266 -246 421 -350 76 -51 312 -190 324 -190 2 0 46 -20 97 -44 121 -58
202 -88 369 -137 74 -22 149 -44 165 -49 17 -5 50 -12 75 -15 24 -4 47 -8 50
-10 3 -2 26 -6 50 -10 25 -3 72 -10 105 -15 186 -30 534 -32 745 -4 43 5 169
26 235 39 47 9 214 53 280 73 l60 18 85 170 c89 175 100 199 180 399 151 376
271 797 336 1184 3 18 7 43 10 54 2 11 8 55 14 97 6 42 12 85 14 96 4 18 16
138 21 199 8 89 16 209 20 280 5 92 5 446 0 550 -5 108 -15 242 -20 278 -2 17
-7 59 -10 92 -15 147 -54 391 -100 615 -9 43 -77 307 -100 385 -89 309 -229
665 -382 971 l-55 112 -122 35 c-180 52 -282 75 -421 93 -27 3 -59 8 -70 10
-53 10 -429 26 -438 18z"/>
<path d="M4965 4460 c-396 -159 -688 -343 -971 -613 -76 -73 -210 -220 -267
-292 -160 -206 -281 -409 -386 -648 -42 -95 -115 -303 -136 -387 -15 -60 -55
-241 -59 -265 -23 -151 -25 -166 -33 -265 -13 -157 -7 -475 11 -580 2 -14 7
-47 11 -75 16 -120 53 -283 102 -450 l18 -60 155 -78 c227 -115 569 -256 740
-306 25 -8 59 -20 77 -27 17 -8 36 -14 41 -14 6 0 46 -11 89 -24 155 -47 406
-109 493 -121 24 -4 47 -8 50 -10 7 -5 295 -51 365 -59 28 -4 66 -8 85 -11 62
-9 150 -16 385 -30 92 -6 449 -6 550 0 224 12 450 35 610 61 148 23 239 40
330 61 61 13 121 27 135 30 27 5 30 6 75 18 201 51 572 168 675 212 19 8 44
19 55 23 190 77 283 119 451 201 l121 60 28 92 c26 86 51 181 61 236 3 14 7
27 9 31 2 4 7 29 11 56 3 27 8 58 10 69 44 230 50 566 14 835 -69 526 -269
1002 -594 1420 -105 134 -305 339 -431 441 -68 55 -255 190 -332 238 -67 42
-335 176 -418 209 l-80 31 -507 -507 -508 -507 -507 507 c-433 431 -511 505
-528 498z"/>
</g>
</svg>
